<svg width="400" height="100" viewBox="0 0 400 100" fill="none" xmlns="http://www.w3.org/2000/svg">
<g clip-path="url(#clip0_1_9)">
<rect width="400" height="100" fill="white"/>
<rect width="100" height="100" fill="#D62828"/>
<path d="M19.392 79.12C18.72 79.12 18.384 78.896 18.384 78.448C18.384 78.224 18.5333 77.7013 18.832 76.88C19.2053 75.984 19.6907 74.1173 20.288 71.28C21.1093 67.7707 21.856 64 22.528 59.968C23.2747 55.936 24.32 49.3653 25.664 40.256C26.112 37.4187 26.336 35.44 26.336 34.32C26.336 33.3493 26.112 32.864 25.664 32.864C24.9173 32.864 24.096 33.4613 23.2 34.656C22.304 35.8507 21.2213 37.4933 19.952 39.584C19.5787 40.256 19.2427 40.8533 18.944 41.376C18.6453 41.824 18.384 42.16 18.16 42.384C18.0107 42.608 17.824 42.72 17.6 42.72C17.0027 42.72 16.704 42.3093 16.704 41.488C16.704 39.9947 17.5253 37.904 19.168 35.216C20.8107 32.4533 22.752 30.0267 24.992 27.936C27.232 25.7707 29.248 24.688 31.04 24.688C32.2347 24.688 33.0933 25.248 33.616 26.368C34.1387 27.4133 34.4 28.7573 34.4 30.4C34.4 31.968 34.0267 35.2907 33.28 40.368L32.72 44.288H32.832C36.4907 37.792 40.0373 32.9013 43.472 29.616C46.9813 26.3307 50.304 24.688 53.44 24.688C54.9333 24.688 56.016 25.1733 56.688 26.144C57.36 27.04 57.696 28.5707 57.696 30.736C57.696 32.8267 57.36 35.776 56.688 39.584L56.128 42.72H56.352C59.712 36.8213 63.072 32.3413 66.432 29.28C69.8667 26.2187 72.928 24.688 75.616 24.688C78.752 24.688 80.32 26.928 80.32 31.408C80.32 32.976 79.984 35.7013 79.312 39.584L76.736 53.024C74.8693 62.5067 73.936 67.8827 73.936 69.152C73.936 70.496 74.496 71.168 75.616 71.168C76.8853 71.168 78.0427 70.3467 79.088 68.704C80.1333 66.9867 81.2533 64.7467 82.448 61.984C82.7467 61.1627 83.12 60.752 83.568 60.752C84.016 60.752 84.24 61.2 84.24 62.096C84.24 62.768 84.2027 63.3653 84.128 63.888C83.6053 66.576 82.5227 69.1147 80.88 71.504C79.312 73.8187 77.52 75.6853 75.504 77.104C73.488 78.448 71.6587 79.12 70.016 79.12C67.328 79.12 65.984 77.104 65.984 73.072C65.984 70.0107 66.9173 64.0373 68.784 55.152C69.008 54.032 69.4933 51.4187 70.24 47.312C71.0613 43.2053 71.5467 39.7707 71.696 37.008C71.696 35.7387 71.584 34.8053 71.36 34.208C71.136 33.6107 70.576 33.312 69.68 33.312C67.9627 33.312 66.0213 34.544 63.856 37.008C61.7653 39.472 59.7867 42.5707 57.92 46.304C56.0533 50.0373 54.6347 53.696 53.664 57.28L50.192 75.088C50.1173 75.984 49.2587 76.88 47.616 77.776C46.048 78.672 44.7787 79.12 43.808 79.12C42.7627 79.12 42.24 78.672 42.24 77.776C42.912 74.864 44.144 68.5173 45.936 58.736C47.728 48.88 48.7733 41.6373 49.072 37.008V35.888C49.072 35.0667 48.96 34.432 48.736 33.984C48.512 33.536 48.0267 33.312 47.28 33.312C45.264 33.312 42.9867 34.88 40.448 38.016C37.984 41.0773 35.744 44.848 33.728 49.328C31.7867 53.7333 30.5173 57.728 29.92 61.312L28.128 71.056C27.68 72.9973 26.4853 74.8267 24.544 76.544C22.6027 78.2613 20.8853 79.12 19.392 79.12Z" fill="white"/>
<line x1="127" y1="45" x2="182" y2="45" stroke="black" stroke-width="10"/>
<path d="M177 74C179.761 74 182 71.7614 182 69C182 66.2386 179.761 64 177 64V74ZM177 64L127 64V74H177V64Z" fill="black"/>
<path d="M177 27C179.761 27 182 24.7614 182 22C182 19.2386 179.761 17 177 17V27ZM177 17L127 17V27L177 27V17Z" fill="black"/>
<path d="M243.447 42.0804V50.4642H216.217V42.0804H243.447ZM219.406 20.8344V73H208.658V20.8344H219.406ZM251.114 20.8344V73H240.401V20.8344H251.114ZM300.127 20.8344V73H289.414V20.8344H300.127ZM316.178 20.8344V29.254H273.614V20.8344H316.178ZM359.852 29.7556L345.664 73H334.235L353.618 20.8344H360.891L359.852 29.7556ZM371.639 73L357.416 29.7556L356.269 20.8344H363.614L383.104 73H371.639ZM370.994 53.5812V62.0008H343.443V53.5812H370.994Z" fill="black"/>
<path d="M135.016 98H128.438V86.5781H135.016V88.5625H130.859V91.0703H134.727V93.0547H130.859V96H135.016V98ZM137.406 98V86.5781H139.828V96H144.461V98H137.406ZM153.031 98H146.453V86.5781H153.031V88.5625H148.875V91.0703H152.742V93.0547H148.875V96H153.031V98ZM160.273 88.4297C159.81 88.4297 159.398 88.5208 159.039 88.7031C158.685 88.8802 158.385 89.138 158.141 89.4766C157.901 89.8151 157.719 90.224 157.594 90.7031C157.469 91.1823 157.406 91.7214 157.406 92.3203C157.406 93.1276 157.505 93.8177 157.703 94.3906C157.906 94.9583 158.219 95.3932 158.641 95.6953C159.062 95.9922 159.607 96.1406 160.273 96.1406C160.737 96.1406 161.201 96.0885 161.664 95.9844C162.133 95.8802 162.641 95.7318 163.188 95.5391V97.5703C162.682 97.7786 162.185 97.9271 161.695 98.0156C161.206 98.1094 160.656 98.1562 160.047 98.1562C158.87 98.1562 157.901 97.9141 157.141 97.4297C156.385 96.9401 155.826 96.2578 155.461 95.3828C155.096 94.5026 154.914 93.4766 154.914 92.3047C154.914 91.4401 155.031 90.6484 155.266 89.9297C155.5 89.2109 155.844 88.5885 156.297 88.0625C156.75 87.5365 157.31 87.1302 157.977 86.8438C158.643 86.5573 159.409 86.4141 160.273 86.4141C160.841 86.4141 161.409 86.487 161.977 86.6328C162.549 86.7734 163.096 86.9688 163.617 87.2188L162.836 89.1875C162.409 88.9844 161.979 88.8073 161.547 88.6562C161.115 88.5052 160.69 88.4297 160.273 88.4297ZM170.031 98H167.609V88.5938H164.508V86.5781H173.133V88.5938H170.031V98ZM178.219 86.5781C179.255 86.5781 180.109 86.7031 180.781 86.9531C181.458 87.2031 181.961 87.5807 182.289 88.0859C182.617 88.5911 182.781 89.2292 182.781 90C182.781 90.5208 182.682 90.9766 182.484 91.3672C182.286 91.7578 182.026 92.0885 181.703 92.3594C181.38 92.6302 181.031 92.8516 180.656 93.0234L184.016 98H181.328L178.602 93.6172H177.312V98H174.891V86.5781H178.219ZM178.047 88.5625H177.312V91.6484H178.094C178.896 91.6484 179.469 91.5156 179.812 91.25C180.161 90.9792 180.336 90.5833 180.336 90.0625C180.336 89.5208 180.148 89.1354 179.773 88.9062C179.404 88.6771 178.828 88.5625 178.047 88.5625ZM195.82 92.2734C195.82 93.1536 195.711 93.9557 195.492 94.6797C195.273 95.3984 194.94 96.0182 194.492 96.5391C194.049 97.0599 193.487 97.4609 192.805 97.7422C192.122 98.0182 191.315 98.1562 190.383 98.1562C189.451 98.1562 188.643 98.0182 187.961 97.7422C187.279 97.4609 186.714 97.0599 186.266 96.5391C185.823 96.0182 185.492 95.3958 185.273 94.6719C185.055 93.9479 184.945 93.1432 184.945 92.2578C184.945 91.0755 185.138 90.0469 185.523 89.1719C185.914 88.2917 186.513 87.6094 187.32 87.125C188.128 86.6406 189.154 86.3984 190.398 86.3984C191.638 86.3984 192.656 86.6406 193.453 87.125C194.255 87.6094 194.849 88.2917 195.234 89.1719C195.625 90.0521 195.82 91.0859 195.82 92.2734ZM187.484 92.2734C187.484 93.0703 187.583 93.7578 187.781 94.3359C187.984 94.9089 188.299 95.3516 188.727 95.6641C189.154 95.9714 189.706 96.125 190.383 96.125C191.07 96.125 191.628 95.9714 192.055 95.6641C192.482 95.3516 192.792 94.9089 192.984 94.3359C193.182 93.7578 193.281 93.0703 193.281 92.2734C193.281 91.0755 193.057 90.1328 192.609 89.4453C192.161 88.7578 191.424 88.4141 190.398 88.4141C189.716 88.4141 189.159 88.5703 188.727 88.8828C188.299 89.1901 187.984 89.6328 187.781 90.2109C187.583 90.7839 187.484 91.4714 187.484 92.2734ZM208.32 98H205.242L200.273 89.3594H200.203C200.224 89.7188 200.242 90.0807 200.258 90.4453C200.273 90.8099 200.289 91.1745 200.305 91.5391C200.32 91.8984 200.336 92.2604 200.352 92.625V98H198.188V86.5781H201.242L206.203 95.1328H206.258C206.247 94.7786 206.234 94.4271 206.219 94.0781C206.203 93.7292 206.188 93.3802 206.172 93.0312C206.161 92.6823 206.151 92.3333 206.141 91.9844V86.5781H208.32V98ZM211.203 98V86.5781H213.625V98H211.203ZM221.352 88.4297C220.888 88.4297 220.477 88.5208 220.117 88.7031C219.763 88.8802 219.464 89.138 219.219 89.4766C218.979 89.8151 218.797 90.224 218.672 90.7031C218.547 91.1823 218.484 91.7214 218.484 92.3203C218.484 93.1276 218.583 93.8177 218.781 94.3906C218.984 94.9583 219.297 95.3932 219.719 95.6953C220.141 95.9922 220.685 96.1406 221.352 96.1406C221.815 96.1406 222.279 96.0885 222.742 95.9844C223.211 95.8802 223.719 95.7318 224.266 95.5391V97.5703C223.76 97.7786 223.263 97.9271 222.773 98.0156C222.284 98.1094 221.734 98.1562 221.125 98.1562C219.948 98.1562 218.979 97.9141 218.219 97.4297C217.464 96.9401 216.904 96.2578 216.539 95.3828C216.174 94.5026 215.992 93.4766 215.992 92.3047C215.992 91.4401 216.109 90.6484 216.344 89.9297C216.578 89.2109 216.922 88.5885 217.375 88.0625C217.828 87.5365 218.388 87.1302 219.055 86.8438C219.721 86.5573 220.487 86.4141 221.352 86.4141C221.919 86.4141 222.487 86.487 223.055 86.6328C223.628 86.7734 224.174 86.9688 224.695 87.2188L223.914 89.1875C223.487 88.9844 223.057 88.8073 222.625 88.6562C222.193 88.5052 221.768 88.4297 221.352 88.4297ZM234.383 86.4141C234.997 86.4141 235.544 86.5104 236.023 86.7031C236.503 86.8958 236.88 87.1771 237.156 87.5469C237.438 87.9167 237.578 88.3672 237.578 88.8984C237.578 89.6328 237.359 90.25 236.922 90.75C236.49 91.25 235.948 91.6875 235.297 92.0625L237.516 94.2266C237.734 93.8672 237.919 93.487 238.07 93.0859C238.227 92.6849 238.362 92.2812 238.477 91.875H240.961C240.799 92.474 240.562 93.1146 240.25 93.7969C239.943 94.474 239.549 95.112 239.07 95.7109L241.422 98H238.477L237.578 97.1172C237.271 97.3307 236.94 97.5156 236.586 97.6719C236.237 97.8281 235.862 97.9479 235.461 98.0312C235.065 98.1146 234.646 98.1562 234.203 98.1562C233.339 98.1562 232.596 98.0208 231.977 97.75C231.357 97.4792 230.883 97.1016 230.555 96.6172C230.227 96.1276 230.062 95.5599 230.062 94.9141C230.062 94.3724 230.146 93.9089 230.312 93.5234C230.479 93.1328 230.719 92.7917 231.031 92.5C231.344 92.2031 231.719 91.9297 232.156 91.6797C231.88 91.3568 231.659 91.0547 231.492 90.7734C231.331 90.4922 231.214 90.2135 231.141 89.9375C231.073 89.6562 231.039 89.362 231.039 89.0547C231.039 88.513 231.18 88.0469 231.461 87.6562C231.747 87.2604 232.141 86.9557 232.641 86.7422C233.146 86.5234 233.727 86.4141 234.383 86.4141ZM233.547 93.1016C233.349 93.2526 233.174 93.4089 233.023 93.5703C232.878 93.7318 232.766 93.9036 232.688 94.0859C232.609 94.2682 232.57 94.4688 232.57 94.6875C232.57 95.1458 232.742 95.5052 233.086 95.7656C233.43 96.026 233.857 96.1562 234.367 96.1562C234.711 96.1562 235.031 96.1146 235.328 96.0312C235.625 95.9479 235.896 95.8307 236.141 95.6797L233.547 93.1016ZM234.367 88.2578C234.102 88.2578 233.846 88.3255 233.602 88.4609C233.362 88.5964 233.242 88.849 233.242 89.2188C233.242 89.4792 233.31 89.7344 233.445 89.9844C233.581 90.2292 233.76 90.4792 233.984 90.7344C234.432 90.4896 234.776 90.2448 235.016 90C235.255 89.75 235.375 89.4661 235.375 89.1484C235.375 88.8307 235.266 88.6042 235.047 88.4688C234.833 88.3281 234.607 88.2578 234.367 88.2578ZM253.594 98H247.016V86.5781H253.594V88.5625H249.438V91.0703H253.305V93.0547H249.438V96H253.594V98ZM255.984 98V86.5781H258.406V96H263.039V98H255.984ZM271.609 98H265.031V86.5781H271.609V88.5625H267.453V91.0703H271.32V93.0547H267.453V96H271.609V98ZM278.852 88.4297C278.388 88.4297 277.977 88.5208 277.617 88.7031C277.263 88.8802 276.964 89.138 276.719 89.4766C276.479 89.8151 276.297 90.224 276.172 90.7031C276.047 91.1823 275.984 91.7214 275.984 92.3203C275.984 93.1276 276.083 93.8177 276.281 94.3906C276.484 94.9583 276.797 95.3932 277.219 95.6953C277.641 95.9922 278.185 96.1406 278.852 96.1406C279.315 96.1406 279.779 96.0885 280.242 95.9844C280.711 95.8802 281.219 95.7318 281.766 95.5391V97.5703C281.26 97.7786 280.763 97.9271 280.273 98.0156C279.784 98.1094 279.234 98.1562 278.625 98.1562C277.448 98.1562 276.479 97.9141 275.719 97.4297C274.964 96.9401 274.404 96.2578 274.039 95.3828C273.674 94.5026 273.492 93.4766 273.492 92.3047C273.492 91.4401 273.609 90.6484 273.844 89.9297C274.078 89.2109 274.422 88.5885 274.875 88.0625C275.328 87.5365 275.888 87.1302 276.555 86.8438C277.221 86.5573 277.987 86.4141 278.852 86.4141C279.419 86.4141 279.987 86.487 280.555 86.6328C281.128 86.7734 281.674 86.9688 282.195 87.2188L281.414 89.1875C280.987 88.9844 280.557 88.8073 280.125 88.6562C279.693 88.5052 279.268 88.4297 278.852 88.4297ZM288.609 98H286.188V88.5938H283.086V86.5781H291.711V88.5938H288.609V98ZM296.797 86.5781C297.833 86.5781 298.688 86.7031 299.359 86.9531C300.036 87.2031 300.539 87.5807 300.867 88.0859C301.195 88.5911 301.359 89.2292 301.359 90C301.359 90.5208 301.26 90.9766 301.062 91.3672C300.865 91.7578 300.604 92.0885 300.281 92.3594C299.958 92.6302 299.609 92.8516 299.234 93.0234L302.594 98H299.906L297.18 93.6172H295.891V98H293.469V86.5781H296.797ZM296.625 88.5625H295.891V91.6484H296.672C297.474 91.6484 298.047 91.5156 298.391 91.25C298.74 90.9792 298.914 90.5833 298.914 90.0625C298.914 89.5208 298.727 89.1354 298.352 88.9062C297.982 88.6771 297.406 88.5625 296.625 88.5625ZM304.031 98V86.5781H306.453V98H304.031ZM314.18 88.4297C313.716 88.4297 313.305 88.5208 312.945 88.7031C312.591 88.8802 312.292 89.138 312.047 89.4766C311.807 89.8151 311.625 90.224 311.5 90.7031C311.375 91.1823 311.312 91.7214 311.312 92.3203C311.312 93.1276 311.411 93.8177 311.609 94.3906C311.812 94.9583 312.125 95.3932 312.547 95.6953C312.969 95.9922 313.513 96.1406 314.18 96.1406C314.643 96.1406 315.107 96.0885 315.57 95.9844C316.039 95.8802 316.547 95.7318 317.094 95.5391V97.5703C316.589 97.7786 316.091 97.9271 315.602 98.0156C315.112 98.1094 314.562 98.1562 313.953 98.1562C312.776 98.1562 311.807 97.9141 311.047 97.4297C310.292 96.9401 309.732 96.2578 309.367 95.3828C309.003 94.5026 308.82 93.4766 308.82 92.3047C308.82 91.4401 308.938 90.6484 309.172 89.9297C309.406 89.2109 309.75 88.5885 310.203 88.0625C310.656 87.5365 311.216 87.1302 311.883 86.8438C312.549 86.5573 313.315 86.4141 314.18 86.4141C314.747 86.4141 315.315 86.487 315.883 86.6328C316.456 86.7734 317.003 86.9688 317.523 87.2188L316.742 89.1875C316.315 88.9844 315.885 88.8073 315.453 88.6562C315.021 88.5052 314.596 88.4297 314.18 88.4297ZM326.523 98L325.695 95.2812H321.531L320.703 98H318.094L322.125 86.5312H325.086L329.133 98H326.523ZM325.117 93.25L324.289 90.5938C324.237 90.4167 324.167 90.1901 324.078 89.9141C323.995 89.6328 323.909 89.349 323.82 89.0625C323.737 88.7708 323.669 88.5182 323.617 88.3047C323.565 88.5182 323.492 88.7839 323.398 89.1016C323.31 89.4141 323.224 89.7109 323.141 89.9922C323.057 90.2734 322.997 90.474 322.961 90.5938L322.141 93.25H325.117ZM330.578 98V86.5781H333V96H337.633V98H330.578Z" fill="black"/>
</g>
<defs>
<clipPath id="clip0_1_9">
<rect width="400" height="100" fill="white"/>
</clipPath>
</defs>
</svg>
